<?xml version="1.0" encoding="UTF-8" standalone="no"?>
<!-- Created with Inkscape (http://www.inkscape.org/) -->

<svg
   xmlns:dc="http://purl.org/dc/elements/1.1/"
   xmlns:cc="http://creativecommons.org/ns#"
   xmlns:rdf="http://www.w3.org/1999/02/22-rdf-syntax-ns#"
   xmlns:svg="http://www.w3.org/2000/svg"
   xmlns="http://www.w3.org/2000/svg"
   xmlns:sodipodi="http://sodipodi.sourceforge.net/DTD/sodipodi-0.dtd"
   xmlns:inkscape="http://www.inkscape.org/namespaces/inkscape"
   width="210mm"
   height="297mm"
   viewBox="0 0 210 297"
   version="1.1"
   id="svg8"
   inkscape:version="0.92.0 r15299"
   sodipodi:docname="player.svg">
  <defs
     id="defs2" />
  <sodipodi:namedview
     id="base"
     pagecolor="#ffffff"
     bordercolor="#666666"
     borderopacity="1.0"
     inkscape:pageopacity="0.0"
     inkscape:pageshadow="2"
     inkscape:zoom="3.959798"
     inkscape:cx="248.92109"
     inkscape:cy="1061.194"
     inkscape:document-units="mm"
     inkscape:current-layer="layer1"
     showgrid="false"
     inkscape:measure-start="0,0"
     inkscape:measure-end="0,0"
     inkscape:window-width="1920"
     inkscape:window-height="1051"
     inkscape:window-x="-9"
     inkscape:window-y="-9"
     inkscape:window-maximized="1" />
  <metadata
     id="metadata5">
    <rdf:RDF>
      <cc:Work
         rdf:about="">
        <dc:format>image/svg+xml</dc:format>
        <dc:type
           rdf:resource="http://purl.org/dc/dcmitype/StillImage" />
        <dc:title></dc:title>
      </cc:Work>
    </rdf:RDF>
  </metadata>
  <g
     inkscape:label="Calque 1"
     inkscape:groupmode="layer"
     id="layer1">
    <rect
       id="rect3682"
       width="25.324406"
       height="15.68601"
       x="33.261906"
       y="18.998512"
       style="stroke-width:0.26458332"
       inkscape:export-xdpi="96"
       inkscape:export-ydpi="96" />
    <circle
       id="path3684"
       cx="34.67931"
       cy="26.765923"
       style="stroke-width:0.16893627"
       r="7.8430061"
       inkscape:export-xdpi="96"
       inkscape:export-ydpi="96" />
    <circle
       id="path3684-6"
       cx="57.830357"
       cy="26.747025"
       style="stroke-width:0.16893627"
       r="7.8430061"
       inkscape:export-xdpi="96"
       inkscape:export-ydpi="96" />
    <path
       style="fill:#ffffff;fill-opacity:1;stroke-width:0.2040792"
       id="path4553-9"
       clip-path="none"
       ry="5.0081844"
       rx="5.5751491"
       cy="35.648361"
       cx="42.182144"
       inkscape:export-xdpi="96"
       inkscape:export-ydpi="96" />
    <ellipse
       style="fill:none;fill-opacity:1;stroke-width:0.26458332"
       id="path4618"
       cx="44.317707"
       cy="21.73884"
       rx="14.268601"
       ry="12.945685"
       inkscape:export-xdpi="96"
       inkscape:export-ydpi="96" />
    <ellipse
       style="fill:#ffe079;fill-opacity:1;stroke-width:0.2215067"
       id="path4620"
       cx="45.924103"
       cy="28.164433"
       rx="10.961308"
       ry="11.055803"
       inkscape:export-xdpi="96"
       inkscape:export-ydpi="96" />
    <path
       style="fill:#a3992a;fill-opacity:1;stroke-width:0.24729617"
       d="m 45.886087,15.540137 a 11.43378,11.528274 0 0 0 -11.433411,11.527979 11.43378,11.528274 0 0 0 3.209624,8.007262 5.5751491,5.0081843 0 0 1 5.427059,-3.887102 5.5751491,5.0081843 0 0 1 3.06493,0.828892 5.5751491,5.0081843 0 0 1 3.360518,-1.018027 5.5751491,5.0081843 0 0 1 5.244124,3.326413 11.43378,11.528274 0 0 0 2.561085,-7.257438 11.43378,11.528274 0 0 0 -11.433929,-11.527979 z"
       id="path3684-6-0"
       inkscape:connector-curvature="0"
       inkscape:export-xdpi="96"
       inkscape:export-ydpi="96" />
    <ellipse
       style="fill:#ffe079;fill-opacity:1;stroke-width:0.26458332"
       id="path4631"
       cx="46.056396"
       cy="39.409225"
       rx="2.9293153"
       ry="2.0788691"
       inkscape:export-xdpi="96"
       inkscape:export-ydpi="96" />
    <ellipse
       style="fill:#ffffff;fill-opacity:1;stroke-width:0.02580637"
       id="path4636"
       cx="42.522324"
       cy="36.234226"
       rx="1.5119036"
       ry="2.0788691"
       inkscape:export-xdpi="96"
       inkscape:export-ydpi="96" />
    <ellipse
       style="fill:#ffffff;fill-opacity:1;stroke-width:0.02580637"
       id="path4636-6"
       cx="49.930656"
       cy="35.969646"
       rx="1.5119036"
       ry="2.0788691"
       inkscape:export-xdpi="96"
       inkscape:export-ydpi="96" />
    <ellipse
       style="fill:#000000;fill-opacity:1;stroke-width:0.03813348"
       id="path4670"
       cx="42.711311"
       cy="36.914585"
       rx="0.75595242"
       ry="0.75595182"
       inkscape:export-xdpi="96"
       inkscape:export-ydpi="96" />
    <ellipse
       style="fill:#000000;fill-opacity:1;stroke-width:0.03813348"
       id="path4670-5"
       cx="49.836163"
       cy="36.801189"
       rx="0.75595242"
       ry="0.75595182"
       inkscape:export-xdpi="96"
       inkscape:export-ydpi="96" />
    <path
       style="fill:#a3992b;fill-opacity:1;stroke-width:0.12177429"
       d="m 49.951922,33.432585 a 1.4764915,1.2365282 0 0 0 -1.476403,1.236606 1.4764915,1.2365282 0 0 0 0.0068,0.108742 1.4764915,1.2365282 0 0 1 1.46957,-1.120486 1.4764915,1.2365282 0 0 1 1.46957,1.12677 1.4764915,1.2365282 0 0 0 0.007,-0.115026 1.4764915,1.2365282 0 0 0 -1.476609,-1.236606 z"
       id="path4687"
       inkscape:connector-curvature="0"
       inkscape:export-xdpi="96"
       inkscape:export-ydpi="96" />
    <path
       style="fill:#a3992b;fill-opacity:1;stroke-width:0.12177429"
       d="m 42.475008,33.796096 a 1.4764915,1.2365282 0 0 0 -1.476403,1.236606 1.4764915,1.2365282 0 0 0 0.0068,0.108742 1.4764915,1.2365282 0 0 1 1.46957,-1.120486 1.4764915,1.2365282 0 0 1 1.46957,1.12677 1.4764915,1.2365282 0 0 0 0.007,-0.115026 1.4764915,1.2365282 0 0 0 -1.476609,-1.236606 z"
       id="path4687-2"
       inkscape:connector-curvature="0"
       inkscape:export-xdpi="96"
       inkscape:export-ydpi="96" />
  </g>
</svg>
